<?xml version="1.0" encoding="UTF-8" standalone="no"?>
<svg
   xmlns:ooo="http://xml.openoffice.org/svg/export"
   xmlns:dc="http://purl.org/dc/elements/1.1/"
   xmlns:cc="http://creativecommons.org/ns#"
   xmlns:rdf="http://www.w3.org/1999/02/22-rdf-syntax-ns#"
   xmlns:svg="http://www.w3.org/2000/svg"
   xmlns="http://www.w3.org/2000/svg"
   xmlns:sodipodi="http://sodipodi.sourceforge.net/DTD/sodipodi-0.dtd"
   xmlns:inkscape="http://www.inkscape.org/namespaces/inkscape"
   width="114.132mm"
   height="77.520004mm"
   viewBox="0 0 11413.2 7752.0004"
   preserveAspectRatio="xMidYMid"
   xml:space="preserve"
   version="1.1"
   id="svg4327"
   sodipodi:docname="logo.svg"
   inkscape:version="0.92.4 (5da689c313, 2019-01-14)"
   style="fill-rule:evenodd;stroke-width:28.22200012;stroke-linejoin:round"
   inkscape:export-filename="/home/sven/documents/sturdy/logo.png"
   inkscape:export-xdpi="96"
   inkscape:export-ydpi="96"><metadata
   id="metadata4331"><rdf:RDF><cc:Work
       rdf:about=""><dc:format>image/svg+xml</dc:format><dc:type
         rdf:resource="http://purl.org/dc/dcmitype/StillImage" /><dc:title /></cc:Work></rdf:RDF></metadata><sodipodi:namedview
   pagecolor="#ffffff"
   bordercolor="#666666"
   borderopacity="1"
   objecttolerance="10"
   gridtolerance="10"
   guidetolerance="10"
   inkscape:pageopacity="0"
   inkscape:pageshadow="2"
   inkscape:window-width="2994"
   inkscape:window-height="1953"
   id="namedview4329"
   showgrid="false"
   inkscape:zoom="3.159091"
   inkscape:cx="97.504596"
   inkscape:cy="113.19038"
   inkscape:window-x="0"
   inkscape:window-y="41"
   inkscape:window-maximized="0"
   inkscape:current-layer="svg4327"
   fit-margin-top="0"
   fit-margin-left="0"
   fit-margin-right="0"
   fit-margin-bottom="0" />
 <defs
   id="defs4049">
   
 <filter
   style="color-interpolation-filters:sRGB"
   inkscape:label="Drop Shadow"
   id="filter5027"><feFlood
     flood-opacity="0.498039"
     flood-color="rgb(0,0,0)"
     result="flood"
     id="feFlood5017" /><feComposite
     in="flood"
     in2="SourceGraphic"
     operator="in"
     result="composite1"
     id="feComposite5019" /><feGaussianBlur
     in="composite1"
     stdDeviation="86.1"
     result="blur"
     id="feGaussianBlur5021" /><feOffset
     dx="5.5"
     dy="9.6"
     result="offset"
     id="feOffset5023" /><feComposite
     in="SourceGraphic"
     in2="offset"
     operator="over"
     result="composite2"
     id="feComposite5025" /></filter></defs>
 <defs
   class="ClipPathGroup"
   id="defs4057">
  <clipPath
   id="presentation_clip_path"
   clipPathUnits="userSpaceOnUse">
   <rect
   x="0"
   y="0"
   width="21590"
   height="27940"
   id="rect4051" />
  </clipPath>
  <clipPath
   id="presentation_clip_path_shrink"
   clipPathUnits="userSpaceOnUse">
   <rect
   x="21"
   y="27"
   width="21547"
   height="27885"
   id="rect4054" />
  </clipPath>
 </defs>
 <defs
   class="TextShapeIndex"
   id="defs4061">
  <g
   ooo:slide="id1"
   ooo:id-list="id3 id4 id5 id6 id7 id8 id9 id10 id11 id12 id13 id14 id15 id16 id17 id18 id19 id20 id21 id22 id23 id24 id25 id26 id27 id28 id29 id30 id31 id32 id33"
   id="g4059" />
 </defs>
 <defs
   class="EmbeddedBulletChars"
   id="defs4093">
  <g
   id="bullet-char-template-57356"
   transform="matrix(4.8828125e-4,0,0,-4.8828125e-4,0,0)">
   <path
   d="M 580,1141 1163,571 580,0 -4,571 Z"
   id="path4063"
   inkscape:connector-curvature="0" />
  </g>
  <g
   id="bullet-char-template-57354"
   transform="matrix(4.8828125e-4,0,0,-4.8828125e-4,0,0)">
   <path
   d="M 8,1128 H 1137 V 0 H 8 Z"
   id="path4066"
   inkscape:connector-curvature="0" />
  </g>
  <g
   id="bullet-char-template-10146"
   transform="matrix(4.8828125e-4,0,0,-4.8828125e-4,0,0)">
   <path
   d="M 174,0 602,739 174,1481 1456,739 Z M 1358,739 309,1346 659,739 Z"
   id="path4069"
   inkscape:connector-curvature="0" />
  </g>
  <g
   id="bullet-char-template-10132"
   transform="matrix(4.8828125e-4,0,0,-4.8828125e-4,0,0)">
   <path
   d="M 2015,739 1276,0 H 717 l 543,543 H 174 v 393 h 1086 l -543,545 h 557 z"
   id="path4072"
   inkscape:connector-curvature="0" />
  </g>
  <g
   id="bullet-char-template-10007"
   transform="matrix(4.8828125e-4,0,0,-4.8828125e-4,0,0)">
   <path
   d="m 0,-2 c -7,16 -16,29 -25,39 l 381,530 c -94,256 -141,385 -141,387 0,25 13,38 40,38 9,0 21,-2 34,-5 21,4 42,12 65,25 l 27,-13 111,-251 280,301 64,-25 24,25 c 21,-10 41,-24 62,-43 C 886,937 835,863 770,784 769,783 710,716 594,584 L 774,223 c 0,-27 -21,-55 -63,-84 l 16,-20 C 717,90 699,76 672,76 641,76 570,178 457,381 L 164,-76 c -22,-34 -53,-51 -92,-51 -42,0 -63,17 -64,51 -7,9 -10,24 -10,44 0,9 1,19 2,30 z"
   id="path4075"
   inkscape:connector-curvature="0" />
  </g>
  <g
   id="bullet-char-template-10004"
   transform="matrix(4.8828125e-4,0,0,-4.8828125e-4,0,0)">
   <path
   d="M 285,-33 C 182,-33 111,30 74,156 52,228 41,333 41,471 c 0,78 14,145 41,201 34,71 87,106 158,106 53,0 88,-31 106,-94 l 23,-176 c 8,-64 28,-97 59,-98 l 735,706 c 11,11 33,17 66,17 42,0 63,-15 63,-46 V 965 c 0,-36 -10,-64 -30,-84 L 442,47 C 390,-6 338,-33 285,-33 Z"
   id="path4078"
   inkscape:connector-curvature="0" />
  </g>
  <g
   id="bullet-char-template-9679"
   transform="matrix(4.8828125e-4,0,0,-4.8828125e-4,0,0)">
   <path
   d="M 813,0 C 632,0 489,54 383,161 276,268 223,411 223,592 c 0,181 53,324 160,431 106,107 249,161 430,161 179,0 323,-54 432,-161 108,-107 162,-251 162,-431 0,-180 -54,-324 -162,-431 C 1136,54 992,0 813,0 Z"
   id="path4081"
   inkscape:connector-curvature="0" />
  </g>
  <g
   id="bullet-char-template-8226"
   transform="matrix(4.8828125e-4,0,0,-4.8828125e-4,0,0)">
   <path
   d="m 346,457 c -73,0 -137,26 -191,78 -54,51 -81,114 -81,188 0,73 27,136 81,188 54,52 118,78 191,78 73,0 134,-26 185,-79 51,-51 77,-114 77,-187 0,-75 -25,-137 -76,-188 -50,-52 -112,-78 -186,-78 z"
   id="path4084"
   inkscape:connector-curvature="0" />
  </g>
  <g
   id="bullet-char-template-8211"
   transform="matrix(4.8828125e-4,0,0,-4.8828125e-4,0,0)">
   <path
   d="M -4,459 H 1135 V 606 H -4 Z"
   id="path4087"
   inkscape:connector-curvature="0" />
  </g>
  <g
   id="bullet-char-template-61548"
   transform="matrix(4.8828125e-4,0,0,-4.8828125e-4,0,0)">
   <path
   d="m 173,740 c 0,163 58,303 173,419 116,115 255,173 419,173 163,0 302,-58 418,-173 116,-116 174,-256 174,-419 0,-163 -58,-303 -174,-418 C 1067,206 928,148 765,148 601,148 462,206 346,322 231,437 173,577 173,740 Z"
   id="path4090"
   inkscape:connector-curvature="0" />
  </g>
 </defs>
 <defs
   class="TextEmbeddedBitmaps"
   id="defs4095" />
 <g
   id="g4100"
   style=""
   transform="translate(-11.584663,-14.7625)">
  <g
   id="id2"
   class="Master_Slide">
   <g
   id="bg-id2"
   class="Background" />
   <g
   id="bo-id2"
   class="BackgroundObjects" />
  </g>
 </g>
 <g
   class="SlideGroup"
   id="g4325"
   style="filter:url(#filter5027)"
   transform="translate(-5329.9,-6648)">
  <g
   id="g4323">
   <g
   id="container-id1">
    <g
   id="id1"
   class="Slide"
   clip-path="url(#presentation_clip_path)">
     <g
   class="Page"
   id="g4319">
      <g
   class="com.sun.star.drawing.LineShape"
   id="g4107">
       <g
   id="id3">
        <rect
   class="BoundingBox"
   x="6281"
   y="8948"
   width="4806"
   height="4806"
   id="rect4102"
   style="fill:none;stroke:none" />
        
       </g>
      </g>
      <g
   class="com.sun.star.drawing.LineShape"
   id="g4114">
       <g
   id="id4">
        <rect
   class="BoundingBox"
   x="6281"
   y="7297"
   width="1758"
   height="1758"
   id="rect4109"
   style="fill:none;stroke:none" />
        <path
   d="M 6334,9001 7985,7350"
   id="path4111"
   inkscape:connector-curvature="0"
   style="fill:none;stroke:#000000;stroke-width:106;stroke-linejoin:round"
   sodipodi:nodetypes="cc" />
       </g>
      </g>
      <g
   class="com.sun.star.drawing.LineShape"
   id="g4121">
       <g
   id="id5">
        <rect
   class="BoundingBox"
   x="7932"
   y="7297"
   width="3155"
   height="107"
   id="rect4116"
   style="fill:none;stroke:none" />
        
       </g>
      </g>
      <g
   class="com.sun.star.drawing.LineShape"
   id="g4128">
       <g
   id="id6">
        <rect
   class="BoundingBox"
   x="6281"
   y="8948"
   width="4806"
   height="107"
   id="rect4123"
   style="fill:none;stroke:none" />
        
       </g>
      </g>
      <g
   class="com.sun.star.drawing.LineShape"
   id="g4135">
       <g
   id="id7">
        <rect
   class="BoundingBox"
   x="9837"
   y="8948"
   width="1250"
   height="4806"
   id="rect4130"
   style="fill:none;stroke:none" />
        <path
   d="m 9890,9001 1143,4699 -4699,-4699 h 4699"
   id="path4132"
   inkscape:connector-curvature="0"
   style="fill:none;stroke:#000000;stroke-width:106;stroke-linejoin:round"
   sodipodi:nodetypes="cccc" />
       </g>
      </g>
      <g
   class="com.sun.star.drawing.LineShape"
   id="g4142">
       <g
   id="id8">
        <rect
   class="BoundingBox"
   x="10599"
   y="8948"
   width="488"
   height="3282"
   id="rect4137"
   style="fill:none;stroke:none" />
        
       </g>
      </g>
      <g
   class="com.sun.star.drawing.LineShape"
   id="g4149">
       <g
   id="id9">
        <rect
   class="BoundingBox"
   x="8821"
   y="8948"
   width="1885"
   height="3282"
   id="rect4144"
   style="fill:none;stroke:none" />
        <path
   d="m 8874,9001 1778,3175 381,-3175"
   id="path4146"
   inkscape:connector-curvature="0"
   style="fill:none;stroke:#000000;stroke-width:106;stroke-linejoin:round"
   sodipodi:nodetypes="ccc" />
       </g>
      </g>
      <g
   class="com.sun.star.drawing.LineShape"
   id="g4156">
       <g
   id="id10">
        <rect
   class="BoundingBox"
   x="8821"
   y="8948"
   width="742"
   height="3282"
   id="rect4151"
   style="fill:none;stroke:none" />
        <path
   d="M 9509,12176 8874,9001"
   id="path4153"
   inkscape:connector-curvature="0"
   style="fill:none;stroke:#000000;stroke-width:106;stroke-linejoin:round" />
       </g>
      </g>
      <g
   class="com.sun.star.drawing.LineShape"
   id="g4163">
       <g
   id="id11">
        <rect
   class="BoundingBox"
   x="7551"
   y="8948"
   width="2012"
   height="3282"
   id="rect4158"
   style="fill:none;stroke:none" />
        <path
   d="M 9509,12176 7604,9001"
   id="path4160"
   inkscape:connector-curvature="0"
   style="fill:none;stroke:#000000;stroke-width:106;stroke-linejoin:round" />
       </g>
      </g>
      <g
   class="com.sun.star.drawing.LineShape"
   id="g4170">
       <g
   id="id12">
        <rect
   class="BoundingBox"
   x="10980"
   y="7297"
   width="107"
   height="1758"
   id="rect4165"
   style="fill:none;stroke:none" />
        <path
   d="M 11033,9001 V 7350 H 7985 l 1778,635"
   id="path4167"
   inkscape:connector-curvature="0"
   style="fill:none;stroke:#000000;stroke-width:106;stroke-linejoin:round"
   sodipodi:nodetypes="cccc" />
       </g>
      </g>
      <g
   class="com.sun.star.drawing.LineShape"
   id="g4177">
       <g
   id="id13">
        <rect
   class="BoundingBox"
   x="7551"
   y="7297"
   width="3536"
   height="1758"
   id="rect4172"
   style="fill:none;stroke:none" />
        <path
   d="M 7604,9001 11033,7350"
   id="path4174"
   inkscape:connector-curvature="0"
   style="fill:none;stroke:#000000;stroke-width:106;stroke-linejoin:round"
   sodipodi:nodetypes="cc" />
       </g>
      </g>
      <g
   class="com.sun.star.drawing.LineShape"
   id="g4184">
       <g
   id="id14">
        <rect
   class="BoundingBox"
   x="9710"
   y="7932"
   width="1377"
   height="1123"
   id="rect4179"
   style="fill:none;stroke:none" />
        <path
   d="M 11033,9001 9763,7985"
   id="path4181"
   inkscape:connector-curvature="0"
   style="fill:none;stroke:#000000;stroke-width:106;stroke-linejoin:round" />
       </g>
      </g>
      <g
   class="com.sun.star.drawing.LineShape"
   id="g4191">
       <g
   id="id15">
        <rect
   class="BoundingBox"
   x="7932"
   y="7297"
   width="1885"
   height="742"
   id="rect4186"
   style="fill:none;stroke:none" />
        
       </g>
      </g>
      <g
   class="com.sun.star.drawing.LineShape"
   id="g4198">
       <g
   id="id16">
        <rect
   class="BoundingBox"
   x="7424"
   y="7805"
   width="234"
   height="1250"
   id="rect4193"
   style="fill:none;stroke:none" />
        <path
   d="M 7604,9001 7477,7858"
   id="path4195"
   inkscape:connector-curvature="0"
   style="fill:none;stroke:#000000;stroke-width:106;stroke-linejoin:round" />
       </g>
      </g>
      <g
   class="com.sun.star.drawing.LineShape"
   id="g4205">
       <g
   id="id17">
        <rect
   class="BoundingBox"
   x="9710"
   y="7932"
   width="234"
   height="1123"
   id="rect4200"
   style="fill:none;stroke:none" />
        <path
   d="M 9890,9001 9763,7985"
   id="path4202"
   inkscape:connector-curvature="0"
   style="fill:none;stroke:#000000;stroke-width:106;stroke-linejoin:round" />
       </g>
      </g>
      <g
   class="com.sun.star.drawing.LineShape"
   id="g4212">
       <g
   id="id18">
        <rect
   class="BoundingBox"
   x="8821"
   y="7932"
   width="996"
   height="1123"
   id="rect4207"
   style="fill:none;stroke:none" />
        <path
   d="M 8874,9001 9763,7985"
   id="path4209"
   inkscape:connector-curvature="0"
   style="fill:none;stroke:#000000;stroke-width:106;stroke-linejoin:round" />
       </g>
      </g>
      <g
   class="com.sun.star.drawing.LineShape"
   id="g4219">
       <g
   id="id19">
        <rect
   class="BoundingBox"
   x="10986"
   y="8945"
   width="4806"
   height="4806"
   id="rect4214"
   style="fill:none;stroke:none" />
        
       </g>
      </g>
      <g
   class="com.sun.star.drawing.LineShape"
   id="g4226">
       <g
   id="id20">
        <rect
   class="BoundingBox"
   x="14034"
   y="7294"
   width="1758"
   height="1758"
   id="rect4221"
   style="fill:none;stroke:none" />
        
       </g>
      </g>
      <g
   class="com.sun.star.drawing.LineShape"
   id="g4233">
       <g
   id="id21">
        <rect
   class="BoundingBox"
   x="10986"
   y="7294"
   width="3155"
   height="107"
   id="rect4228"
   style="fill:none;stroke:none" />
        <path
   d="m 14087,7347 h -3048 l 3429,1651"
   id="path4230"
   inkscape:connector-curvature="0"
   style="fill:none;stroke:#000000;stroke-width:106;stroke-linejoin:round"
   sodipodi:nodetypes="ccc" />
       </g>
      </g>
      <g
   class="com.sun.star.drawing.LineShape"
   id="g4240">
       <g
   id="id22">
        <rect
   class="BoundingBox"
   x="10986"
   y="8945"
   width="4806"
   height="107"
   id="rect4235"
   style="fill:none;stroke:none" />
        <path
   d="m 11039,8998 h 4699 l -1651,-1651 -1778,635"
   id="path4237"
   inkscape:connector-curvature="0"
   style="fill:none;stroke:#000000;stroke-width:106;stroke-linejoin:round"
   sodipodi:nodetypes="cccc" />
       </g>
      </g>
      <g
   class="com.sun.star.drawing.LineShape"
   id="g4247">
       <g
   id="id23">
        <rect
   class="BoundingBox"
   x="10986"
   y="8945"
   width="1250"
   height="4806"
   id="rect4242"
   style="fill:none;stroke:none" />
        <path
   d="m 12182,8998 -1143,4699 4699,-4699"
   id="path4244"
   inkscape:connector-curvature="0"
   style="fill:none;stroke:#000000;stroke-width:106;stroke-linejoin:round"
   sodipodi:nodetypes="ccc" />
       </g>
      </g>
      <g
   class="com.sun.star.drawing.LineShape"
   id="g4254">
       <g
   id="id24">
        <rect
   class="BoundingBox"
   x="10986"
   y="8945"
   width="488"
   height="3282"
   id="rect4249"
   style="fill:none;stroke:none" />
        
       </g>
      </g>
      <g
   class="com.sun.star.drawing.LineShape"
   id="g4261">
       <g
   id="id25">
        <rect
   class="BoundingBox"
   x="11367"
   y="8945"
   width="1885"
   height="3282"
   id="rect4256"
   style="fill:none;stroke:none" />
        <path
   d="m 13198,8998 -1778,3175 -381,-3175"
   id="path4258"
   inkscape:connector-curvature="0"
   style="fill:none;stroke:#000000;stroke-width:106;stroke-linejoin:round"
   sodipodi:nodetypes="ccc" />
       </g>
      </g>
      <g
   class="com.sun.star.drawing.LineShape"
   id="g4268">
       <g
   id="id26">
        <rect
   class="BoundingBox"
   x="12510"
   y="8945"
   width="742"
   height="3282"
   id="rect4263"
   style="fill:none;stroke:none" />
        <path
   d="m 12563,12173 635,-3175"
   id="path4265"
   inkscape:connector-curvature="0"
   style="fill:none;stroke:#000000;stroke-width:106;stroke-linejoin:round" />
       </g>
      </g>
      <g
   class="com.sun.star.drawing.LineShape"
   id="g4275">
       <g
   id="id27">
        <rect
   class="BoundingBox"
   x="12510"
   y="8945"
   width="2012"
   height="3282"
   id="rect4270"
   style="fill:none;stroke:none" />
        <path
   d="M 12563,12173 14468,8998"
   id="path4272"
   inkscape:connector-curvature="0"
   style="fill:none;stroke:#000000;stroke-width:106;stroke-linejoin:round" />
       </g>
      </g>
      <g
   class="com.sun.star.drawing.LineShape"
   id="g4282">
       <g
   id="id28">
        <rect
   class="BoundingBox"
   x="10986"
   y="7294"
   width="3536"
   height="1758"
   id="rect4277"
   style="fill:none;stroke:none" />
        
       </g>
      </g>
      <g
   class="com.sun.star.drawing.LineShape"
   id="g4289">
       <g
   id="id29">
        <rect
   class="BoundingBox"
   x="10986"
   y="7929"
   width="1377"
   height="1123"
   id="rect4284"
   style="fill:none;stroke:none" />
        <path
   d="M 11039,8998 12309,7982"
   id="path4286"
   inkscape:connector-curvature="0"
   style="fill:none;stroke:#000000;stroke-width:106;stroke-linejoin:round" />
       </g>
      </g>
      <g
   class="com.sun.star.drawing.LineShape"
   id="g4296">
       <g
   id="id30">
        <rect
   class="BoundingBox"
   x="12256"
   y="7294"
   width="1885"
   height="742"
   id="rect4291"
   style="fill:none;stroke:none" />
        
       </g>
      </g>
      <g
   class="com.sun.star.drawing.LineShape"
   id="g4303">
       <g
   id="id31">
        <rect
   class="BoundingBox"
   x="14415"
   y="7802"
   width="234"
   height="1250"
   id="rect4298"
   style="fill:none;stroke:none" />
        <path
   d="m 14468,8998 127,-1143"
   id="path4300"
   inkscape:connector-curvature="0"
   style="fill:none;stroke:#000000;stroke-width:106;stroke-linejoin:round" />
       </g>
      </g>
      <g
   class="com.sun.star.drawing.LineShape"
   id="g4310">
       <g
   id="id32">
        <rect
   class="BoundingBox"
   x="12129"
   y="7929"
   width="234"
   height="1123"
   id="rect4305"
   style="fill:none;stroke:none" />
        <path
   d="m 12182,8998 127,-1016"
   id="path4307"
   inkscape:connector-curvature="0"
   style="fill:none;stroke:#000000;stroke-width:106;stroke-linejoin:round" />
       </g>
      </g>
      <g
   class="com.sun.star.drawing.LineShape"
   id="g4317">
       <g
   id="id33">
        <rect
   class="BoundingBox"
   x="12256"
   y="7929"
   width="996"
   height="1123"
   id="rect4312"
   style="fill:none;stroke:none" />
        <path
   d="M 13198,8998 12309,7982"
   id="path4314"
   inkscape:connector-curvature="0"
   style="fill:none;stroke:#000000;stroke-width:106;stroke-linejoin:round" />
       </g>
      </g>
     </g>
    </g>
   </g>
  </g>
 </g>
</svg>